# 3ds Max Wavefront OBJ Exporter v0.97b - (c)2007 guruware
# File Created: 16.09.2013 14:43:49

# mtllib wand.mtl

#
# object Cube
#

v  -200.0000 12.6381 12.6380
v  -500.0000 6.3190 6.3190
v  -500.0000 -6.3190 6.3190
v  -200.0000 -12.6381 12.6380
v  -200.0000 -15.0000 15.0000
v  -200.0000 15.0000 15.0000
v  -500.0000 6.3190 -6.3190
v  -200.0000 12.6381 -12.6380
v  -200.0000 -12.6381 -12.6380
v  -500.0000 -6.3190 -6.3190
v  -200.0000 15.0000 -15.0000
v  -200.0000 -15.0000 -15.0000
v  -195.0000 17.5000 -17.5000
v  -195.0000 17.5000 17.5000
v  -195.0000 -17.5000 17.5000
v  -195.0000 -17.5000 -17.5000
v  -190.0000 15.0000 15.0000
v  -190.0000 -15.0000 15.0000
v  -190.0000 15.0000 -15.0000
v  -190.0000 -15.0000 -15.0000
v  0.0000 -15.0000 -15.0000
v  0.0000 15.0000 -15.0000
v  0.0000 15.0000 15.0000
v  0.0000 -15.0000 15.0000
v  -5.0000 17.5000 17.5000
v  -5.0000 -17.5000 17.5000
v  -5.0000 17.5000 -17.5000
v  -5.0000 -17.5000 -17.5000
v  -10.0000 15.0000 15.0000
v  -10.0000 -15.0000 15.0000
v  -10.0000 15.0000 -15.0000
v  -10.0000 -15.0000 -15.0000
# 32 vertices

vn -0.7415 0.4744 0.4744
vn -0.5884 0.5717 0.5717
vn -0.5884 -0.5717 0.5717
vn -0.9090 -0.2948 0.2948
vn -0.8101 0.0000 0.5862
vn 0.0162 -0.9962 0.0852
vn -0.5884 0.5717 -0.5717
vn -0.7415 0.4744 -0.4744
vn -0.9090 -0.2948 -0.2948
vn -0.5884 -0.5717 -0.5717
vn 0.5770 -0.6027 0.5512
vn 1.0000 0.0000 -0.0000
vn -0.4212 0.9070 -0.0000
vn -0.0000 -0.7071 0.7071
vn -0.2182 -0.8729 -0.4364
vn -0.4472 0.8944 -0.0000
vn -0.4472 0.0000 0.8944
vn 0.4472 0.8944 -0.0000
vn 0.2182 0.4364 0.8729
vn 0.4472 0.0000 0.8944
vn -0.4248 -0.4248 -0.7994
vn -0.2568 0.0000 -0.9665
vn -0.6147 -0.5577 0.5577
vn 0.0000 -0.8831 0.4692
vn 0.4472 -0.8944 -0.0000
vn 0.4536 -0.0830 0.8873
vn 0.8101 0.5862 -0.0000
vn 0.7994 0.4248 0.4248
vn 0.7994 -0.4248 0.4248
vn 0.2553 -0.3789 0.8895
vn 0.3883 0.1350 0.9116
vn 0.0000 0.7071 0.7071
vn 0.0000 -0.6719 0.7406
vn -0.3839 -0.6060 0.6967
vn 0.3511 -0.7022 -0.6193
vn 0.0000 0.0626 -0.9980
vn -0.4472 0.0000 -0.8944
vn 0.0000 0.0000 -1.0000
vn 0.0000 1.0000 -0.0000
vn 0.0000 -1.0000 -0.0000
# 40 vertex normals

vt 0.0046 0.6788 0.0000
vt 0.9839 0.7157 0.0000
vt 0.9839 0.7831 0.0000
vt 0.0046 0.8136 0.0000
vt 0.9616 0.9796 0.0000
vt 0.9621 0.8195 0.0000
vt 0.9365 0.8061 0.0000
vt 0.9361 0.9911 0.0000
vt 0.0047 0.8136 0.0000
vt 0.0047 0.6788 0.0000
vt 0.2478 0.6604 0.0000
vt 0.1837 0.6604 0.0000
vt 0.1837 0.5929 0.0000
vt 0.2478 0.5929 0.0000
vt 0.9361 0.9910 0.0000
vt 0.9616 0.9795 0.0000
vt 0.9362 0.9910 0.0000
vt 0.9617 0.9796 0.0000
vt 0.9366 0.8061 0.0000
vt 0.9362 0.9911 0.0000
vt 0.9621 0.8196 0.0000
vt 0.9615 0.9796 0.0000
vt 0.9365 0.8062 0.0000
vt 0.1582 0.5021 0.0000
vt 0.1583 0.6661 0.0000
vt 0.0060 0.6661 0.0000
vt 0.0059 0.5021 0.0000
vt 0.9366 0.8062 0.0000
vt 0.9615 0.9795 0.0000
vt 0.9139 1.0000 0.0000
vt 0.0000 1.0000 0.0000
vt 0.0000 0.8399 0.0000
vt 0.9139 0.8399 0.0000
vt -0.0000 0.8399 0.0000
vt -0.0000 1.0000 0.0000
# 35 texture coords

g Cube
f 1/1/1 2/2/2 3/3/3 4/4/4 
f 1/5/1 4/6/4 5/7/5 6/8/6 
f 7/3/7 8/9/8 9/10/9 10/2/10 
f 2/11/2 7/12/7 10/13/10 3/14/3 
f 8/10/8 7/2/7 2/3/2 1/4/1 
f 4/10/4 3/2/3 10/3/10 9/9/9 
# f 11/8/11 6/7/12 1/6/12 
# f 1/6/12 8/5/12 11/8/11 
f 9/6/9 8/5/8 11/15/11 12/7/13 
f 4/6/4 9/5/9 12/8/13 5/7/5 
f 6/6/6 11/16/11 13/17/14 14/7/15 
# f 6/18/6 5/6/5 15/19/16 
# f 15/19/16 14/20/17 6/18/17 
# f 12/6/18 5/5/18 15/8/16 
# f 15/8/16 16/7/19 12/6/13 
# f 11/18/20 12/21/20 16/7/19 
# f 16/7/19 13/17/14 11/18/11 
f 17/6/21 18/18/22 15/20/16 14/7/15 
f 19/6/23 17/22/21 14/15/15 13/23/14 
f 13/8/14 16/7/19 20/6/24 19/5/23 
# f 15/8/25 16/19/25 20/6/24 
# f 20/6/24 18/5/25 15/8/25 
f 21/24/26 22/25/27 23/26/28 24/27/29 
f 24/6/29 23/16/28 25/20/19 26/19/30 
f 22/5/27 27/8/31 25/7/19 23/6/28 
# f 21/6/17 22/5/17 27/8/31 
# f 27/8/31 28/23/32 21/6/26 
# f 26/15/30 28/28/25 21/6/25 
# f 21/6/26 24/5/29 26/15/30 
f 26/8/30 25/7/19 29/6/33 30/22/34 
# f 27/8/25 25/7/25 29/6/33 
# f 29/6/33 31/18/35 27/8/31 
# f 32/6/36 31/29/37 27/15/37 
# f 27/15/37 28/19/37 32/6/36 
# f 26/8/30 28/19/32 32/6/36 
# f 32/6/36 30/5/18 26/8/18 
# f 17/30/21 29/31/38 30/32/38 
# f 30/32/34 18/33/22 17/30/21 
# f 19/31/39 17/32/39 29/33/33 
# f 29/33/39 31/30/39 19/31/23 
# f 32/34/36 20/33/38 19/30/38 
# f 19/30/23 31/35/35 32/34/36 
# f 20/32/24 32/33/36 30/30/34 
# f 30/30/40 18/31/40 20/32/24 
# 16 polygons - 28 triangles

