# 3ds Max Wavefront OBJ Exporter v0.97b - (c)2007 guruware
# File Created: 16.09.2013 20:59:23

#
# object Cube
#

v  -19.6850 -0.2488 0.2488
v  -19.6850 0.2488 0.2488
v  -7.8740 0.4976 0.4976
v  -7.8740 -0.4976 0.4976
v  -7.8740 -0.5906 0.5906
v  -7.8740 0.5906 0.5906
v  -7.8740 -0.4976 -0.4976
v  -7.8740 0.4976 -0.4976
v  -19.6850 0.2488 -0.2488
v  -19.6850 -0.2488 -0.2488
v  -7.8740 0.5906 -0.5906
v  -7.8740 -0.5906 -0.5906
v  -7.6772 0.6890 0.6890
v  -7.6772 0.6890 -0.6890
v  -7.6772 -0.6890 0.6890
v  -7.6772 -0.6890 -0.6890
v  -7.4803 0.5906 0.5906
v  -7.4803 -0.5906 0.5906
v  -7.4803 0.5906 -0.5906
v  -7.4803 -0.5906 -0.5906
v  0.0000 0.5906 0.5906
v  0.0000 0.5906 -0.5906
v  0.0000 -0.5906 -0.5906
v  0.0000 -0.5906 0.5906
v  -0.1969 0.6890 0.6890
v  -0.1969 -0.6890 0.6890
v  -0.1969 0.6890 -0.6890
v  -0.1969 -0.6890 -0.6890
v  -0.3937 0.5906 0.5906
v  -0.3937 -0.5906 0.5906
v  -0.3937 0.5906 -0.5906
v  -0.3937 -0.5906 -0.5906
# 32 vertices

vn 0.0211 0.0000 -0.9998
vn 0.9163 0.2832 -0.2832
vn 1.0000 0.0000 -0.0000
vn 0.9163 -0.2832 -0.2832
vn 0.0211 -0.0000 0.9998
vn 0.0211 -0.9998 -0.0000
vn 0.0211 0.9998 0.0000
vn 0.9163 -0.2832 0.2832
vn 0.9163 0.2832 0.2832
vn 0.0000 -0.7071 -0.7071
vn 0.0000 -0.7071 0.7071
vn 0.0000 0.7071 -0.7071
vn 0.0000 0.7071 0.7071
vn -0.3167 -0.6707 -0.6707
vn -0.3167 0.6707 -0.6707
vn -0.3167 -0.6707 0.6707
vn -0.3167 0.6707 0.6707
vn -0.8317 -0.3927 -0.3927
vn -0.8317 -0.3927 0.3927
vn -0.8317 0.3927 0.3927
vn -0.8317 0.3927 -0.3927
vn 0.3167 -0.6707 -0.6707
vn 0.3167 0.6707 -0.6707
vn 0.3167 -0.6707 0.6707
vn 0.3167 0.6707 0.6707
vn -0.2371 -0.1256 0.9633
vn -0.0497 0.0384 0.9980
vn 0.0497 0.0384 0.9980
vn 0.2371 -0.1256 0.9633
# 29 vertex normals

vt 0.9839 0.7831 0.0000
vt 0.9839 0.7157 0.0000
vt 0.0046 0.6788 0.0000
vt 0.0046 0.8136 0.0000
vt 0.9365 0.8061 0.0000
vt 0.9621 0.8195 0.0000
vt 0.9616 0.9796 0.0000
vt 0.9361 0.9911 0.0000
vt 0.0047 0.6788 0.0000
vt 0.0047 0.8136 0.0000
vt 0.1837 0.5929 0.0000
vt 0.1837 0.6604 0.0000
vt 0.2478 0.6604 0.0000
vt 0.2478 0.5929 0.0000
vt 0.9361 0.9910 0.0000
vt 0.9616 0.9795 0.0000
vt 0.9362 0.9910 0.0000
vt 0.9366 0.8061 0.0000
vt 0.9617 0.9796 0.0000
vt 0.9362 0.9911 0.0000
vt 0.9621 0.8196 0.0000
vt 0.9365 0.8062 0.0000
vt 0.9615 0.9796 0.0000
vt 0.0060 0.6661 0.0000
vt 0.1583 0.6661 0.0000
vt 0.1582 0.5021 0.0000
vt 0.0059 0.5021 0.0000
vt 0.9366 0.8062 0.0000
vt 0.9615 0.9795 0.0000
vt 0.9139 0.8399 0.0000
vt 0.9139 1.0000 0.0000
vt 0.0000 1.0000 0.0000
vt 0.0000 0.8399 0.0000
vt -0.0000 0.8399 0.0000
vt -0.0000 1.0000 0.0000
# 35 texture coords

g Cube
s off
f 1/1/1 2/2/1 3/3/1 4/4/1 
f 5/5/2 4/6/3 3/7/3 6/8/4 
f 7/9/5 8/10/5 9/1/5 10/2/5 
f 10/11/3 9/12/3 2/13/3 1/14/3 
f 2/1/6 9/2/6 8/9/6 3/4/6 
f 10/1/7 1/2/7 4/9/7 7/10/7 
f 8/7/3 11/15/8 6/5/4 3/6/3 
f 11/15/8 8/7/3 7/6/3 12/5/9 
f 12/8/9 7/7/3 4/6/3 5/5/2 
f 13/5/10 6/6/4 11/16/8 14/17/11 
f 15/18/12 5/6/2 6/19/4 13/20/10 
f 16/5/13 12/6/9 5/7/2 15/8/12 
f 14/17/11 11/19/8 12/21/9 16/5/13 
f 13/5/10 17/6/14 18/19/15 15/20/12 
f 14/22/11 19/6/16 17/23/14 13/15/10 
f 19/7/16 14/8/11 16/5/13 20/6/17 
f 20/6/17 16/18/13 15/8/12 18/7/15 
f 21/24/18 22/25/19 23/26/20 24/27/21 
f 25/20/10 21/16/18 24/6/21 26/18/12 
f 25/5/10 27/8/11 22/7/19 21/6/18 
f 28/22/13 23/6/20 22/7/19 27/8/11 
f 23/6/20 28/28/13 26/15/12 24/7/21 
f 29/6/22 25/5/10 26/15/12 30/23/23 
f 31/19/24 27/8/11 25/5/10 29/6/22 
f 27/15/11 31/29/24 32/6/25 28/18/13 
f 30/7/23 26/8/12 28/18/13 32/6/25 
f 18/30/26 17/31/27 29/32/28 30/33/29 
f 29/30/22 17/33/14 19/32/16 31/31/24 
f 19/31/16 20/30/17 32/34/25 31/35/24 
f 30/31/23 32/30/25 20/33/17 18/32/15 
# 30 polygons

#
# object Cube
#

v  -7.8740 -0.4976 0.4976
v  -7.8740 0.4976 0.4976
v  -19.6850 0.2488 0.2488
v  -19.6850 -0.2488 0.2488
v  -7.8740 0.5906 0.5906
v  -7.8740 -0.5906 0.5906
v  -19.6850 -0.2488 -0.2488
v  -19.6850 0.2488 -0.2488
v  -7.8740 0.4976 -0.4976
v  -7.8740 -0.4976 -0.4976
v  -7.8740 0.5906 -0.5906
v  -7.8740 -0.5906 -0.5906
v  -7.6772 0.6890 -0.6890
v  -7.6772 0.6890 0.6890
v  -7.6772 -0.6890 0.6890
v  -7.6772 -0.6890 -0.6890
v  -7.4803 -0.5906 0.5906
v  -7.4803 0.5906 0.5906
v  -7.4803 0.5906 -0.5906
v  -7.4803 -0.5906 -0.5906
v  0.0000 -0.5906 0.5906
v  0.0000 -0.5906 -0.5906
v  0.0000 0.5906 -0.5906
v  0.0000 0.5906 0.5906
v  -0.1969 -0.6890 0.6890
v  -0.1969 0.6890 0.6890
v  -0.1969 0.6890 -0.6890
v  -0.1969 -0.6890 -0.6890
v  -0.3937 -0.5906 0.5906
v  -0.3937 0.5906 0.5906
v  -0.3937 0.5906 -0.5906
v  -0.3937 -0.5906 -0.5906
# 32 vertices

vn -0.0211 -0.0000 0.9998
vn -0.9163 0.2832 0.2832
vn -1.0000 0.0000 -0.0000
vn -0.9163 -0.2832 0.2832
vn -0.0211 0.0000 -0.9998
vn -0.0211 0.9998 0.0000
vn -0.0211 -0.9998 -0.0000
vn -0.9163 0.2832 -0.2832
vn -0.9163 -0.2832 -0.2832
vn 0.0000 0.7071 -0.7071
vn 0.0000 0.7071 0.7071
vn 0.0000 -0.7071 0.7071
vn 0.0000 -0.7071 -0.7071
vn 0.3167 -0.6707 0.6707
vn 0.3167 0.6707 0.6707
vn 0.3167 0.6707 -0.6707
vn 0.3167 -0.6707 -0.6707
vn 0.8317 -0.3927 0.3927
vn 0.8317 -0.3927 -0.3927
vn 0.8317 0.3927 -0.3927
vn 0.8317 0.3927 0.3927
vn -0.3167 -0.6707 0.6707
vn -0.3167 0.6707 0.6707
vn -0.3167 0.6707 -0.6707
vn -0.3167 -0.6707 -0.6707
# 25 vertex normals

vt 0.0046 0.8136 0.0000
vt 0.0046 0.6788 0.0000
vt 0.9839 0.7157 0.0000
vt 0.9839 0.7831 0.0000
vt 0.9361 0.9911 0.0000
vt 0.9616 0.9796 0.0000
vt 0.9621 0.8195 0.0000
vt 0.9365 0.8061 0.0000
vt 0.0047 0.8136 0.0000
vt 0.0047 0.6788 0.0000
vt 0.2478 0.5929 0.0000
vt 0.2478 0.6604 0.0000
vt 0.1837 0.6604 0.0000
vt 0.1837 0.5929 0.0000
vt 0.9361 0.9910 0.0000
vt 0.9362 0.9910 0.0000
vt 0.9616 0.9795 0.0000
vt 0.9362 0.9911 0.0000
vt 0.9617 0.9796 0.0000
vt 0.9366 0.8061 0.0000
vt 0.9621 0.8196 0.0000
vt 0.9615 0.9796 0.0000
vt 0.9365 0.8062 0.0000
vt 0.0059 0.5021 0.0000
vt 0.1582 0.5021 0.0000
vt 0.1583 0.6661 0.0000
vt 0.0060 0.6661 0.0000
vt 0.9366 0.8062 0.0000
vt 0.9615 0.9795 0.0000
vt 0.0000 0.8399 0.0000
vt 0.0000 1.0000 0.0000
vt 0.9139 1.0000 0.0000
vt 0.9139 0.8399 0.0000
vt -0.0000 1.0000 0.0000
vt -0.0000 0.8399 0.0000
# 35 texture coords

g Cube
s off
f 33/36/30 34/37/30 35/38/30 36/39/30 
f 37/40/31 34/41/32 33/42/32 38/43/33 
f 39/38/34 40/39/34 41/44/34 42/45/34 
f 36/46/32 35/47/32 40/48/32 39/49/32 
f 34/36/35 41/45/35 40/38/35 35/39/35 
f 42/44/36 33/45/36 36/38/36 39/39/36 
f 34/42/32 37/43/31 43/50/37 41/41/32 
f 44/43/38 42/42/32 41/41/32 43/50/37 
f 38/43/33 33/42/32 42/41/32 44/40/38 
f 45/51/39 43/52/37 37/42/31 46/43/40 
f 46/53/40 37/54/31 38/42/33 47/55/41 
f 47/40/41 38/41/33 44/42/38 48/43/42 
f 48/43/42 44/56/38 43/54/37 45/51/39 
f 47/53/41 49/54/43 50/42/44 46/43/40 
f 46/50/40 50/57/44 51/42/45 45/58/39 
f 52/42/46 48/43/42 45/40/39 51/41/45 
f 49/41/43 47/40/41 48/55/42 52/42/46 
f 53/59/47 54/60/48 55/61/49 56/62/50 
f 57/55/41 53/42/47 56/52/50 58/53/40 
f 56/42/50 55/41/49 59/40/39 58/43/40 
f 59/40/39 55/41/49 54/42/48 60/58/42 
f 53/41/47 57/50/41 60/63/42 54/42/48 
f 61/57/51 57/50/41 58/43/40 62/42/52 
f 62/42/52 58/43/40 59/40/39 63/54/53 
f 60/55/42 64/42/54 63/64/53 59/50/39 
f 64/42/54 60/55/42 57/40/41 61/41/51 
f 61/65/51 62/66/52 50/67/44 49/68/43 
f 63/67/53 51/66/45 50/65/44 62/68/52 
f 63/69/53 64/70/54 52/68/46 51/67/45 
f 49/66/43 52/65/46 64/68/54 61/67/51 
# 30 polygons

